{
  "accessors": [
    {
      "bufferView": 0,
      "componentType": 5126,
      "count": 121,
      "type": "VEC3",
      "max": [
        5.0,
        1.1102230246251565E-16,
        5.0
      ],
      "min": [
        -5.0,
        -1.1102230246251565E-16,
        -5.0
      ]
    },
    {
      "bufferView": 1,
      "componentType": 5126,
      "count": 121,
      "type": "VEC3",
      "max": [
        0.0,
        1.0,
        0.0
      ],
      "min": [
        0.0,
        1.0,
        0.0
      ]
    },
    {
      "bufferView": 2,
      "componentType": 5126,
      "count": 121,
      "type": "VEC4",
      "max": [
        -1.0,
        0.0,
        0.0,
        -1.0
      ],
      "min": [
        -1.0,
        0.0,
        0.0,
        -1.0
      ]
    },
    {
      "bufferView": 3,
      "componentType": 5126,
      "count": 121,
      "type": "VEC2",
      "max": [
        1.0,
        1.0
      ],
      "min": [
        0.0,
        0.0
      ]
    },
    {
      "bufferView": 4,
      "componentType": 5125,
      "count": 600,
      "type": "SCALAR",
      "max": [
        120.0
      ],
      "min": [
        0.0
      ]
    },
    {
      "bufferView": 5,
      "componentType": 5126,
      "count": 121,
      "type": "VEC3",
      "max": [
        5.0,
        1.1102230246251565E-16,
        5.0
      ],
      "min": [
        -5.0,
        -1.1102230246251565E-16,
        -5.0
      ]
    },
    {
      "bufferView": 6,
      "componentType": 5126,
      "count": 121,
      "type": "VEC3",
      "max": [
        0.0,
        1.0,
        0.0
      ],
      "min": [
        0.0,
        1.0,
        0.0
      ]
    },
    {
      "bufferView": 7,
      "componentType": 5126,
      "count": 121,
      "type": "VEC4",
      "max": [
        -1.0,
        0.0,
        0.0,
        -1.0
      ],
      "min": [
        -1.0,
        0.0,
        0.0,
        -1.0
      ]
    },
    {
      "bufferView": 8,
      "componentType": 5126,
      "count": 121,
      "type": "VEC2",
      "max": [
        1.0,
        1.0
      ],
      "min": [
        0.0,
        0.0
      ]
    },
    {
      "bufferView": 9,
      "componentType": 5125,
      "count": 600,
      "type": "SCALAR",
      "max": [
        120.0
      ],
      "min": [
        0.0
      ]
    },
    {
      "bufferView": 10,
      "componentType": 5126,
      "count": 121,
      "type": "VEC3",
      "max": [
        5.0,
        1.1102230246251565E-16,
        5.0
      ],
      "min": [
        -5.0,
        -1.1102230246251565E-16,
        -5.0
      ]
    },
    {
      "bufferView": 11,
      "componentType": 5126,
      "count": 121,
      "type": "VEC3",
      "max": [
        0.0,
        1.0,
        0.0
      ],
      "min": [
        0.0,
        1.0,
        0.0
      ]
    },
    {
      "bufferView": 12,
      "componentType": 5126,
      "count": 121,
      "type": "VEC4",
      "max": [
        -1.0,
        0.0,
        0.0,
        -1.0
      ],
      "min": [
        -1.0,
        0.0,
        0.0,
        -1.0
      ]
    },
    {
      "bufferView": 13,
      "componentType": 5126,
      "count": 121,
      "type": "VEC2",
      "max": [
        1.0,
        1.0
      ],
      "min": [
        0.0,
        0.0
      ]
    },
    {
      "bufferView": 14,
      "componentType": 5125,
      "count": 600,
      "type": "SCALAR",
      "max": [
        120.0
      ],
      "min": [
        0.0
      ]
    },
    {
      "bufferView": 15,
      "componentType": 5126,
      "count": 121,
      "type": "VEC3",
      "max": [
        5.0,
        1.1102230246251565E-16,
        5.0
      ],
      "min": [
        -5.0,
        -1.1102230246251565E-16,
        -5.0
      ]
    },
    {
      "bufferView": 16,
      "componentType": 5126,
      "count": 121,
      "type": "VEC3",
      "max": [
        0.0,
        1.0,
        0.0
      ],
      "min": [
        0.0,
        1.0,
        0.0
      ]
    },
    {
      "bufferView": 17,
      "componentType": 5126,
      "count": 121,
      "type": "VEC4",
      "max": [
        -1.0,
        0.0,
        0.0,
        -1.0
      ],
      "min": [
        -1.0,
        0.0,
        0.0,
        -1.0
      ]
    },
    {
      "bufferView": 18,
      "componentType": 5126,
      "count": 121,
      "type": "VEC2",
      "max": [
        1.0,
        1.0
      ],
      "min": [
        0.0,
        0.0
      ]
    },
    {
      "bufferView": 19,
      "componentType": 5125,
      "count": 600,
      "type": "SCALAR",
      "max": [
        120.0
      ],
      "min": [
        0.0
      ]
    },
    {
      "bufferView": 20,
      "componentType": 5126,
      "count": 121,
      "type": "VEC3",
      "max": [
        5.0,
        1.1102230246251565E-16,
        5.0
      ],
      "min": [
        -5.0,
        -1.1102230246251565E-16,
        -5.0
      ]
    },
    {
      "bufferView": 21,
      "componentType": 5126,
      "count": 121,
      "type": "VEC3",
      "max": [
        0.0,
        1.0,
        0.0
      ],
      "min": [
        0.0,
        1.0,
        0.0
      ]
    },
    {
      "bufferView": 22,
      "componentType": 5126,
      "count": 121,
      "type": "VEC4",
      "max": [
        -1.0,
        0.0,
        0.0,
        -1.0
      ],
      "min": [
        -1.0,
        0.0,
        0.0,
        -1.0
      ]
    },
    {
      "bufferView": 23,
      "componentType": 5126,
      "count": 121,
      "type": "VEC2",
      "max": [
        1.0,
        1.0
      ],
      "min": [
        0.0,
        0.0
      ]
    },
    {
      "bufferView": 24,
      "componentType": 5125,
      "count": 600,
      "type": "SCALAR",
      "max": [
        120.0
      ],
      "min": [
        0.0
      ]
    },
    {
      "bufferView": 25,
      "componentType": 5126,
      "count": 515,
      "type": "VEC3",
      "max": [
        0.5,
        0.5,
        0.5
      ],
      "min": [
        -0.5,
        -0.5,
        -0.5
      ]
    },
    {
      "bufferView": 26,
      "componentType": 5126,
      "count": 515,
      "type": "VEC3",
      "max": [
        0.99997496604919434,
        1.0,
        0.9999769926071167
      ],
      "min": [
        -0.99997496604919434,
        -1.0,
        -0.99997353553771973
      ]
    },
    {
      "bufferView": 27,
      "componentType": 5126,
      "count": 515,
      "type": "VEC4",
      "max": [
        1.0,
        0.056131001561880112,
        1.0,
        1.0
      ],
      "min": [
        -1.0,
        -0.065983392298221588,
        -1.0,
        -1.0
      ]
    },
    {
      "bufferView": 28,
      "componentType": 5126,
      "count": 515,
      "type": "VEC2",
      "max": [
        0.99833369255065918,
        0.97589123249053955
      ],
      "min": [
        -0.00092136859893798828,
        0.017628978937864304
      ]
    },
    {
      "bufferView": 29,
      "componentType": 5126,
      "count": 515,
      "type": "VEC2",
      "max": [
        1.0000003576278687,
        0.65385353565216064
      ],
      "min": [
        0.0,
        0.0
      ]
    },
    {
      "bufferView": 30,
      "componentType": 5125,
      "count": 2304,
      "type": "SCALAR",
      "max": [
        514.0
      ],
      "min": [
        0.0
      ]
    }
  ],
  "asset": {
    "generator": "Plattar UnityGLTF (2019.4.1f1)",
    "version": "2.0"
  },
  "buffers": [
    {
      "uri": "TestCubeCave.bin",
      "byteLength": 79096
    }
  ],
  "bufferViews": [
    {
      "buffer": 0,
      "byteLength": 1452
    },
    {
      "buffer": 0,
      "byteOffset": 1452,
      "byteLength": 1452
    },
    {
      "buffer": 0,
      "byteOffset": 2904,
      "byteLength": 1936
    },
    {
      "buffer": 0,
      "byteOffset": 4840,
      "byteLength": 968
    },
    {
      "buffer": 0,
      "byteOffset": 5808,
      "byteLength": 2400
    },
    {
      "buffer": 0,
      "byteOffset": 8208,
      "byteLength": 1452
    },
    {
      "buffer": 0,
      "byteOffset": 9660,
      "byteLength": 1452
    },
    {
      "buffer": 0,
      "byteOffset": 11112,
      "byteLength": 1936
    },
    {
      "buffer": 0,
      "byteOffset": 13048,
      "byteLength": 968
    },
    {
      "buffer": 0,
      "byteOffset": 14016,
      "byteLength": 2400
    },
    {
      "buffer": 0,
      "byteOffset": 16416,
      "byteLength": 1452
    },
    {
      "buffer": 0,
      "byteOffset": 17868,
      "byteLength": 1452
    },
    {
      "buffer": 0,
      "byteOffset": 19320,
      "byteLength": 1936
    },
    {
      "buffer": 0,
      "byteOffset": 21256,
      "byteLength": 968
    },
    {
      "buffer": 0,
      "byteOffset": 22224,
      "byteLength": 2400
    },
    {
      "buffer": 0,
      "byteOffset": 24624,
      "byteLength": 1452
    },
    {
      "buffer": 0,
      "byteOffset": 26076,
      "byteLength": 1452
    },
    {
      "buffer": 0,
      "byteOffset": 27528,
      "byteLength": 1936
    },
    {
      "buffer": 0,
      "byteOffset": 29464,
      "byteLength": 968
    },
    {
      "buffer": 0,
      "byteOffset": 30432,
      "byteLength": 2400
    },
    {
      "buffer": 0,
      "byteOffset": 32832,
      "byteLength": 1452
    },
    {
      "buffer": 0,
      "byteOffset": 34284,
      "byteLength": 1452
    },
    {
      "buffer": 0,
      "byteOffset": 35736,
      "byteLength": 1936
    },
    {
      "buffer": 0,
      "byteOffset": 37672,
      "byteLength": 968
    },
    {
      "buffer": 0,
      "byteOffset": 38640,
      "byteLength": 2400
    },
    {
      "buffer": 0,
      "byteOffset": 41040,
      "byteLength": 6180
    },
    {
      "buffer": 0,
      "byteOffset": 47220,
      "byteLength": 6180
    },
    {
      "buffer": 0,
      "byteOffset": 53400,
      "byteLength": 8240
    },
    {
      "buffer": 0,
      "byteOffset": 61640,
      "byteLength": 4120
    },
    {
      "buffer": 0,
      "byteOffset": 65760,
      "byteLength": 4120
    },
    {
      "buffer": 0,
      "byteOffset": 69880,
      "byteLength": 9216
    }
  ],
  "materials": [
    {
      "pbrMetallicRoughness": {
        "baseColorFactor": [
          1.0,
          0.9632399,
          0.0,
          1.0
        ],
        "metallicFactor": 0.0,
        "roughnessFactor": 0.5
      },
      "name": "TestCubeColor"
    },
    {
      "pbrMetallicRoughness": {
        "baseColorFactor": [
          1.0,
          0.0,
          0.988338,
          1.0
        ],
        "metallicFactor": 0.0,
        "roughnessFactor": 0.5
      },
      "name": "TestCubeColor 3"
    },
    {
      "pbrMetallicRoughness": {
        "baseColorFactor": [
          0.0,
          0.8477471,
          1.0,
          1.0
        ],
        "metallicFactor": 0.0,
        "roughnessFactor": 0.5
      },
      "name": "TestCubeColor 2"
    },
    {
      "pbrMetallicRoughness": {
        "baseColorFactor": [
          1.0,
          0.08018869,
          0.08018869,
          1.0
        ],
        "metallicFactor": 0.0,
        "roughnessFactor": 0.5
      },
      "name": "TestCubeColor 1"
    },
    {
      "pbrMetallicRoughness": {
        "baseColorFactor": [
          0.0,
          0.6792453,
          0.0408259332,
          1.0
        ],
        "metallicFactor": 0.0,
        "roughnessFactor": 0.5
      },
      "name": "TestCubeColor 4"
    },
    {
      "pbrMetallicRoughness": {
        "metallicFactor": 0.0,
        "roughnessFactor": 0.5
      },
      "name": "Default-Material"
    }
  ],
  "meshes": [
    {
      "primitives": [
        {
          "attributes": {
            "POSITION": 0,
            "NORMAL": 1,
            "TANGENT": 2,
            "TEXCOORD_0": 3
          },
          "indices": 4,
          "material": 0
        }
      ],
      "name": "Plane"
    },
    {
      "primitives": [
        {
          "attributes": {
            "POSITION": 5,
            "NORMAL": 6,
            "TANGENT": 7,
            "TEXCOORD_0": 8
          },
          "indices": 9,
          "material": 1
        }
      ],
      "name": "Plane (1)"
    },
    {
      "primitives": [
        {
          "attributes": {
            "POSITION": 10,
            "NORMAL": 11,
            "TANGENT": 12,
            "TEXCOORD_0": 13
          },
          "indices": 14,
          "material": 2
        }
      ],
      "name": "Plane (2)"
    },
    {
      "primitives": [
        {
          "attributes": {
            "POSITION": 15,
            "NORMAL": 16,
            "TANGENT": 17,
            "TEXCOORD_0": 18
          },
          "indices": 19,
          "material": 3
        }
      ],
      "name": "Plane (3)"
    },
    {
      "primitives": [
        {
          "attributes": {
            "POSITION": 20,
            "NORMAL": 21,
            "TANGENT": 22,
            "TEXCOORD_0": 23
          },
          "indices": 24,
          "material": 4
        }
      ],
      "name": "Plane (4)"
    },
    {
      "primitives": [
        {
          "attributes": {
            "POSITION": 25,
            "NORMAL": 26,
            "TANGENT": 27,
            "TEXCOORD_0": 28,
            "TEXCOORD_1": 29
          },
          "indices": 30,
          "material": 5
        }
      ],
      "name": "Sphere"
    }
  ],
  "nodes": [
    {
      "children": [
        1,
        2,
        3,
        4,
        5,
        6,
        7
      ],
      "rotation": [
        0.0,
        0.0,
        0.0,
        -1.0
      ],
      "translation": [
        -5.88164139,
        2.758563,
        1.84344459
      ],
      "name": "TestCubeCave"
    },
    {
      "mesh": 0,
      "rotation": [
        0.0,
        0.0,
        0.0,
        -1.0
      ],
      "translation": [
        5.88164139,
        -2.758563,
        -1.84344459
      ],
      "name": "Plane"
    },
    {
      "mesh": 1,
      "rotation": [
        0.7071068,
        0.0,
        0.0,
        -0.7071068
      ],
      "translation": [
        5.88164139,
        2.241437,
        3.15655541
      ],
      "name": "Plane (1)"
    },
    {
      "mesh": 2,
      "rotation": [
        0.50000006,
        0.50000006,
        0.5,
        -0.5
      ],
      "translation": [
        0.8816414,
        2.241437,
        -1.84344459
      ],
      "name": "Plane (2)"
    },
    {
      "mesh": 3,
      "rotation": [
        0.0,
        0.7071068,
        0.707106769,
        0.0
      ],
      "translation": [
        5.88164139,
        2.241437,
        -6.843445
      ],
      "name": "Plane (3)"
    },
    {
      "mesh": 4,
      "rotation": [
        1.0,
        0.0,
        0.0,
        0.0
      ],
      "translation": [
        5.88164139,
        7.241437,
        -1.84344459
      ],
      "name": "Plane (4)"
    },
    {
      "rotation": [
        0.0,
        0.0,
        0.0,
        -1.0
      ],
      "translation": [
        5.35164165,
        2.02494574,
        -1.46344459
      ],
      "name": "Point Light"
    },
    {
      "mesh": 5,
      "rotation": [
        0.0,
        0.0,
        0.0,
        -1.0
      ],
      "scale": [
        5.6782,
        5.6782,
        5.6782
      ],
      "translation": [
        5.24164152,
        -0.138563156,
        -1.68344462
      ],
      "name": "Sphere"
    }
  ],
  "scene": 0,
  "scenes": [
    {
      "nodes": [
        0
      ],
      "name": "TestCubeCave"
    }
  ]
}